<svg width="118" height="36" viewBox="0 0 118 36" fill="none" xmlns="http://www.w3.org/2000/svg">
<g clip-path="url(#clip0_3_2176)">
<g clip-path="url(#clip1_3_2176)">
<g clip-path="url(#clip2_3_2176)">
<path d="M18.2959 0.660034C8.67102 0.660034 0.868164 8.39445 0.868164 17.9351C0.868164 27.4763 8.67102 35.21 18.2959 35.21C27.9217 35.21 35.7237 27.4763 35.7237 17.9351C35.7237 8.39506 27.9217 0.660859 18.2956 0.660859L18.2959 0.660034ZM26.2881 25.5757C25.9759 26.0832 25.3057 26.2441 24.7939 25.9326C20.702 23.455 15.5509 22.8939 9.48452 24.2678C8.89992 24.3998 8.31721 24.0368 8.18402 23.4571C8.05021 22.8774 8.41504 22.2998 9.00105 22.1678C15.6398 20.6643 21.3342 21.3117 25.928 24.0945C26.4399 24.406 26.6023 25.0682 26.2881 25.5757ZM28.4211 20.8719C28.0278 21.5056 27.1912 21.7057 26.5524 21.3158C21.8678 18.4616 14.7269 17.635 9.18605 19.3022C8.46749 19.5173 7.7085 19.1159 7.49039 18.4048C7.27396 17.6926 7.67916 16.9416 8.39651 16.7251C14.7258 14.8214 22.5941 15.7435 27.9737 19.0205C28.6127 19.4103 28.8145 20.2394 28.4211 20.8719ZM28.6043 15.9738C22.9874 12.6667 13.7203 12.3627 8.35756 13.976C7.49643 14.2349 6.58575 13.753 6.32478 12.8994C6.06381 12.0454 6.54953 11.1433 7.41131 10.8838C13.5674 9.03126 23.8012 9.38917 30.2679 13.1946C31.0442 13.6503 31.2981 14.6419 30.8381 15.4087C30.3803 16.1765 29.3764 16.4296 28.6043 15.9738ZM48.2831 16.6074C45.2738 15.8962 44.7389 15.3969 44.7389 14.348C44.7389 13.3569 45.6796 12.69 47.0802 12.69C48.4371 12.69 49.7814 13.1964 51.1924 14.239C51.234 14.2706 51.2881 14.2832 51.3402 14.2749C51.3943 14.2671 51.4401 14.2384 51.4713 14.1953L52.9406 12.1423C53.0009 12.0578 52.9842 11.9412 52.9031 11.8766C51.2237 10.5413 49.334 9.89211 47.1239 9.89211C43.8754 9.89211 41.6049 11.8249 41.6049 14.5901C41.6049 17.5555 43.5631 18.6055 46.947 19.4161C49.8252 20.0735 50.3121 20.6244 50.3121 21.6087C50.3121 22.7 49.3299 23.3787 47.7482 23.3787C45.9918 23.3787 44.5579 22.7908 42.9555 21.4169C42.916 21.3818 42.8619 21.3674 42.8119 21.3695C42.7578 21.3735 42.7099 21.3984 42.6766 21.4375L41.0284 23.3807C40.9597 23.4633 40.968 23.5829 41.0471 23.6531C42.9118 25.3034 45.2051 26.174 47.6817 26.174C51.182 26.174 53.4442 24.2781 53.4442 21.3426C53.4504 18.8657 51.9541 17.4939 48.2893 16.6101L48.2831 16.6074ZM61.3648 13.6658C59.8477 13.6658 58.6032 14.2582 57.5751 15.4722V14.1058C57.5751 13.9979 57.4877 13.91 57.3795 13.91H54.6845C54.5763 13.91 54.4889 13.9979 54.4889 14.1058V29.2889C54.4889 29.3962 54.5763 29.4849 54.6845 29.4849H57.3795C57.4877 29.4849 57.5751 29.3962 57.5751 29.2889V24.4968C58.6032 25.6376 59.8477 26.1966 61.3648 26.1966C64.1847 26.1966 67.0399 24.045 67.0399 19.9318C67.0441 15.8177 64.1889 13.6656 61.3669 13.6656L61.3648 13.6658ZM63.9058 19.9318C63.9058 22.0254 62.6051 23.488 60.7405 23.488C58.8987 23.488 57.5085 21.9594 57.5085 19.9318C57.5085 17.904 58.8987 16.3758 60.7405 16.3758C62.5739 16.3756 63.9058 17.871 63.9058 19.9318ZM74.355 13.6658C70.7234 13.6658 67.8786 16.4374 67.8786 19.9765C67.8786 23.4777 70.7048 26.2193 74.3112 26.2193C77.9552 26.2193 80.8086 23.4571 80.8086 19.9318C80.8086 16.4185 77.974 13.6658 74.355 13.6658ZM74.355 23.5087C72.4237 23.5087 70.9669 21.9698 70.9669 19.9308C70.9669 17.8825 72.3738 16.3962 74.3112 16.3962C76.255 16.3962 77.7201 17.9345 77.7201 19.9755C77.7201 22.0234 76.3049 23.5087 74.355 23.5087ZM88.5627 13.91H85.5969V10.9052C85.5969 10.7976 85.5097 10.7096 85.4014 10.7096H82.7065C82.5981 10.7096 82.5086 10.7976 82.5086 10.9052V13.91H81.2146C81.1062 13.91 81.0182 13.9979 81.0182 14.1058V16.4012C81.0182 16.5088 81.1062 16.5969 81.2146 16.5969H82.5086V22.537C82.5086 24.9362 83.7139 26.1533 86.0924 26.1533C87.0582 26.1533 87.8591 25.9553 88.6145 25.5303C88.6774 25.4973 88.7143 25.4313 88.7143 25.3612V23.1745C88.7143 23.1085 88.6789 23.0445 88.6208 23.0094C88.5627 22.9723 88.4897 22.9702 88.4292 23.0012C87.911 23.259 87.41 23.3787 86.8478 23.3787C85.984 23.3787 85.5969 22.9888 85.5969 22.1183V16.5979H88.5627C88.6711 16.5979 88.7582 16.5101 88.7582 16.4022V14.1071C88.7622 13.9992 88.675 13.9112 88.5643 13.9112L88.5627 13.91ZM98.8932 13.9217V13.5528C98.8932 12.467 99.3133 11.9829 100.254 11.9829C100.816 11.9829 101.268 12.0934 101.773 12.2605C101.835 12.2799 101.901 12.2702 101.95 12.2333C102.002 12.1964 102.032 12.1372 102.032 12.0744V9.82379C102.032 9.73781 101.978 9.66172 101.892 9.63628C101.36 9.47892 100.676 9.3174 99.6525 9.3174C97.1657 9.3174 95.8488 10.7065 95.8488 13.3332V13.8985H94.554C94.4456 13.8985 94.3561 13.9864 94.3561 14.094V16.4012C94.3561 16.5088 94.4456 16.5969 94.554 16.5969H95.8488V25.7572C95.8488 25.8665 95.9376 25.9532 96.0459 25.9532H98.7393C98.8492 25.9532 98.9371 25.8665 98.9371 25.7572V16.5976H101.453L105.307 25.7572C104.87 26.7185 104.439 26.9104 103.853 26.9104C103.378 26.9104 102.877 26.7701 102.366 26.4916C102.318 26.4668 102.26 26.4628 102.21 26.4772C102.158 26.4957 102.115 26.5329 102.094 26.5823L101.181 28.569C101.137 28.6638 101.174 28.7732 101.265 28.8227C102.219 29.3343 103.078 29.5529 104.142 29.5529C106.131 29.5529 107.232 28.6329 108.2 26.1615L112.874 14.1891C112.898 14.1289 112.891 14.0608 112.853 14.0074C112.818 13.9544 112.757 13.9224 112.693 13.9224H109.887C109.802 13.9224 109.727 13.9754 109.7 14.0536L106.826 22.1885L103.68 14.0482C103.65 13.9725 103.578 13.9224 103.496 13.9224L98.8932 13.9217ZM92.9034 13.91H90.2086C90.1002 13.91 90.0107 13.9979 90.0107 14.1058V25.7572C90.0107 25.8665 90.1002 25.9532 90.2086 25.9532H92.9034C93.0118 25.9532 93.1013 25.8665 93.1013 25.7572V14.1066C93.1013 13.9987 93.0142 13.91 92.9034 13.91ZM91.5717 8.60441C90.5046 8.60441 89.6385 9.46094 89.6385 10.519C89.6385 11.5777 90.5046 12.4352 91.5717 12.4352C92.6396 12.4352 93.5034 11.5777 93.5034 10.519C93.5034 9.46118 92.6373 8.60441 91.5717 8.60441ZM115.176 17.6564C114.11 17.6564 113.279 16.8075 113.279 15.7768C113.279 14.7459 114.12 13.8873 115.186 13.8873C116.251 13.8873 117.082 14.736 117.082 15.766C117.082 16.7968 116.241 17.6564 115.176 17.6564ZM115.186 14.0742C114.214 14.0742 113.48 14.8396 113.48 15.7768C113.48 16.7135 114.21 17.4685 115.176 17.4685C116.148 17.4685 116.882 16.7038 116.882 15.766C116.882 14.8292 116.152 14.0742 115.186 14.0742ZM115.606 15.9593L116.143 16.7036H115.689L115.207 16.0208H114.792V16.7036H114.414V14.7306H115.3C115.765 14.7306 116.068 14.9651 116.068 15.36C116.07 15.6835 115.881 15.8811 115.608 15.9593H115.606ZM115.286 15.0692H114.792V15.6932H115.286C115.531 15.6932 115.679 15.5738 115.679 15.3808C115.679 15.1779 115.531 15.0692 115.286 15.0692Z" fill="black"/>
</g>
</g>
</g>
<defs>
<clipPath id="clip0_3_2176">
<rect width="117" height="34.55" fill="white" transform="translate(0.5 0.660034)"/>
</clipPath>
<clipPath id="clip1_3_2176">
<rect width="117" height="34.55" fill="white" transform="translate(0.5 0.660034)"/>
</clipPath>
<clipPath id="clip2_3_2176">
<rect width="116.999" height="34.55" fill="white" transform="translate(0.500977 0.660034)"/>
</clipPath>
</defs>
</svg>
