<svg width="90" height="23" viewBox="0 0 90 23" fill="none" xmlns="http://www.w3.org/2000/svg">
<g clip-path="url(#clip0_1_105)">
<g clip-path="url(#clip1_1_105)">
<g clip-path="url(#clip2_1_105)">
<path d="M89.4303 9.98994C89.2874 9.93027 89.135 9.89641 88.9803 9.88994C88.3803 9.88994 87.9503 10.2399 87.5803 10.7499V10.6699C87.5803 10.3399 87.5103 10.1499 87.3803 9.90994L86.3103 10.1899C86.4603 10.5199 86.5103 10.9199 86.5103 11.5899V15.5199H87.6703V11.8599C87.7103 11.5599 87.8203 11.4299 87.9903 11.2599C88.2003 11.0599 88.4703 11.0199 88.7203 11.0199C88.8403 11.0199 88.9203 11.0499 89.0603 11.0799L89.4303 9.97994V9.98994ZM85.5903 13.0899V12.8499C85.5703 11.6199 85.3503 10.9599 84.9103 10.4999C84.7072 10.3049 84.4673 10.1523 84.2047 10.051C83.942 9.94972 83.6617 9.90176 83.3803 9.90994C82.7003 9.90994 82.1503 10.1499 81.7103 10.6699C81.2703 11.1499 81.0303 11.8299 81.0303 12.7699C81.0303 14.5499 81.9903 15.6499 83.5303 15.6499C84.2603 15.6499 84.9403 15.3999 85.5003 14.9299L85.0603 14.2299C84.6403 14.5799 84.1903 14.7499 83.7003 14.7499C83.1803 14.7499 82.7903 14.5599 82.5303 14.1799C82.3697 13.8645 82.2906 13.5138 82.3003 13.1599V13.0699H85.5903V13.0899ZM80.6303 15.5099L80.4303 14.7999C80.2503 14.8299 80.1303 14.8099 80.0603 14.7199C79.9603 14.6199 79.9203 14.3699 79.9203 13.8499V9.12994C79.9203 8.42994 79.9203 7.94994 79.8303 7.56994L78.6503 7.82994C78.7503 8.25994 78.7703 8.63994 78.7703 9.42994V14.1499C78.7703 14.7399 78.8703 15.0599 79.0203 15.2699C79.2203 15.5399 79.5403 15.6499 79.9203 15.6499C80.1703 15.6399 80.4003 15.6099 80.6303 15.5099ZM74.9303 8.43994C74.929 8.33619 74.9073 8.23372 74.8664 8.13837C74.8255 8.04302 74.7662 7.95667 74.6919 7.88423C74.6176 7.8118 74.5297 7.75471 74.4334 7.71623C74.337 7.67774 74.234 7.65862 74.1303 7.65994C73.9268 7.66752 73.7338 7.75243 73.5907 7.89736C73.4477 8.0423 73.3653 8.23634 73.3603 8.43994C73.3603 8.86994 73.7103 9.21994 74.1203 9.21994C74.5703 9.21994 74.9203 8.87994 74.9203 8.43994H74.9303ZM77.9603 15.5099L77.7603 14.7999L77.6203 14.8099C77.4003 14.8099 77.2703 14.7099 77.2703 14.2799V9.12994C77.2703 8.42994 77.2703 7.94994 77.1703 7.56994L76.0003 7.82994C76.1003 8.25994 76.1203 8.63994 76.1203 9.42994V14.3699C76.1203 15.1799 76.5703 15.6499 77.2403 15.6499C77.5403 15.6399 77.7403 15.6099 77.9603 15.5099ZM74.7103 15.5199V9.91994L73.5503 10.1199V15.5199H74.7103ZM72.3403 15.5199L71.6903 8.04994H70.0903L68.6403 13.5899L67.1403 8.04994H65.4903L64.7903 15.5199H65.8903L66.4103 9.24994L68.1103 15.5199H69.0103L70.7303 9.34994L71.2203 15.5199H72.3403ZM63.4603 15.5199V11.4599C63.4603 10.4399 62.8603 9.93994 62.0003 9.93994C61.4403 9.93994 60.9303 10.1599 60.3403 10.6699C60.3403 10.3999 60.2803 10.1699 60.1503 9.90994L59.0903 10.2099C59.2503 10.5899 59.2903 10.8699 59.2903 11.4799V15.5099H60.4303V11.5399C60.7903 11.1699 61.3203 10.8899 61.7003 10.8899C62.1403 10.8899 62.3403 11.1099 62.3403 11.8599V15.5099H63.4603V15.5199ZM58.3403 15.0199C57.9403 14.7699 57.8503 14.5499 57.8503 13.9199L57.8603 13.7499L57.8903 12.1299V11.7699C57.8903 11.2299 57.8603 11.0499 57.7903 10.8299C57.5903 10.2299 56.9803 9.92994 56.1503 9.92994C55.6703 9.92994 55.1803 10.0199 54.6803 10.2299C54.3703 10.3899 54.1203 10.4699 53.8103 10.6799L54.3203 11.4899C54.5603 11.3299 54.7103 11.2399 54.9703 11.1199C55.3603 10.9499 55.6803 10.8699 55.9703 10.8699C56.2903 10.8699 56.4703 10.9499 56.6103 11.1099C56.7303 11.2599 56.7603 11.4599 56.7603 11.8499V12.1499H56.4003C54.6203 12.1499 53.6403 12.7899 53.6403 14.0699C53.6403 14.4899 53.7803 14.9699 54.0703 15.2499C54.3803 15.5399 54.8003 15.6999 55.4403 15.6999C55.9403 15.6999 56.2903 15.5799 56.6103 15.3599C56.7303 15.2599 56.8103 15.1999 56.9603 15.0299C57.0803 15.3699 57.3803 15.6299 57.7303 15.7699L58.3303 15.0199H58.3403ZM52.6703 15.5199V11.5099C52.6703 10.9099 52.5403 10.5299 52.2403 10.2699C52.0203 10.0499 51.6403 9.93994 51.2403 9.93994C50.6403 9.93994 50.0103 10.2499 49.5703 10.7499C49.4587 10.5059 49.278 10.3 49.0504 10.1578C48.8229 10.0155 48.5586 9.94328 48.2903 9.94994C47.7703 9.94994 47.1903 10.2199 46.8103 10.6399C46.7803 10.3699 46.7103 10.1399 46.6103 9.95994L45.5603 10.2199C45.7103 10.5799 45.7503 10.7799 45.7503 11.5799V15.5399H46.8503V11.4899C47.3003 11.0899 47.6703 10.9299 48.0103 10.9299C48.4803 10.9299 48.6103 11.1699 48.6103 11.7999V15.5299H49.7303V11.5799C50.1903 11.1199 50.5903 10.8999 50.9303 10.8999C51.3403 10.8999 51.5003 11.1399 51.5003 11.6999V15.5399H52.6703V15.5199ZM45.2303 9.98994C45.091 9.92998 44.9419 9.89608 44.7903 9.88994C44.2303 9.88994 43.7703 10.2399 43.4203 10.7499V10.6699C43.4203 10.3399 43.3303 10.1499 43.2203 9.90994L42.1503 10.1899C42.2803 10.5199 42.3503 10.9199 42.3503 11.5899V15.5199H43.5103V11.8599C43.5503 11.5599 43.6403 11.4299 43.8103 11.2599C44.0203 11.0599 44.2903 11.0199 44.5403 11.0199C44.6903 11.0199 44.7403 11.0499 44.8803 11.0799L45.2303 9.97994V9.98994ZM41.4003 13.0899V12.8499C41.3803 11.6199 41.1603 10.9599 40.7003 10.4999C40.4997 10.3043 40.2617 10.1512 40.0005 10.0498C39.7393 9.94841 39.4603 9.90084 39.1803 9.90994C38.4903 9.90994 37.9403 10.1499 37.5003 10.6699C37.0274 11.2638 36.7922 12.0123 36.8403 12.7699C36.8403 14.5499 37.7803 15.6499 39.3403 15.6499C40.0803 15.6499 40.7403 15.3999 41.3103 14.9299L40.8703 14.2299C40.4503 14.5799 40.0103 14.7499 39.5103 14.7499C39.0103 14.7499 38.5903 14.5599 38.3303 14.1799C38.1627 13.867 38.0832 13.5145 38.1003 13.1599V13.0699H41.3903V13.0899H41.4003ZM35.9003 15.5199V8.04994H34.7303V11.0799H32.0003V8.04994H30.8503V15.5199H32.0003V12.0399H34.7203V15.5199H35.9003ZM84.3803 12.2299H82.3003C82.3203 11.2899 82.6903 10.7799 83.3703 10.7799C83.9903 10.7799 84.3703 11.3599 84.3703 12.2299H84.3803ZM56.7403 12.9299L56.7103 14.2299C56.4803 14.6099 56.0803 14.8399 55.6803 14.8399C55.1603 14.8399 54.8803 14.5399 54.8803 13.9899C54.8803 13.6599 54.9803 13.4299 55.1603 13.2499C55.3903 13.0299 55.8103 12.9099 56.5103 12.9099L56.7403 12.9199V12.9299ZM40.2003 12.2299H38.1003C38.1203 11.2899 38.5003 10.7799 39.1703 10.7799C39.8203 10.7799 40.2003 11.3599 40.2003 12.2299ZM18.0403 16.9599V5.42994H17.8403C17.6364 7.15803 17.2543 8.86041 16.7003 10.5099C15.5803 13.9099 13.9803 15.6099 11.9203 15.6099C9.85031 15.6099 8.26031 13.9099 7.11031 10.5099C6.61031 9.10994 6.25031 7.41994 6.00031 5.42994H5.80031V16.9599C7.79072 16.3969 9.85196 16.1241 11.9203 16.1499C13.9889 16.1199 16.0508 16.3928 18.0403 16.9599ZM22.9103 11.1599C22.9103 14.1899 21.8303 16.7899 19.6903 18.9399C18.6852 19.9808 17.4768 20.8038 16.1401 21.3577C14.8034 21.9117 13.367 22.1847 11.9203 22.1599C8.89031 22.1599 6.29031 21.0799 4.14031 18.9399C3.09956 17.9343 2.27599 16.7259 1.72045 15.3895C1.16491 14.0531 0.889186 12.617 0.910308 11.1699C0.910308 8.13994 1.99031 5.54994 4.14031 3.36994C5.14705 2.32916 6.35745 1.50699 7.69601 0.954707C9.03457 0.402424 10.4726 0.131876 11.9203 0.159939C13.3673 0.13941 14.8032 0.415401 16.1395 0.970906C17.4759 1.52641 18.6843 2.34966 19.6903 3.38994C20.7276 4.3998 21.5482 5.61054 22.1018 6.94821C22.6555 8.28587 22.9306 9.72237 22.9103 11.1699V11.1599Z" fill="black"/>
</g>
</g>
</g>
<defs>
<clipPath id="clip0_1_105">
<rect width="90" height="22" fill="white" transform="translate(0 0.159912)"/>
</clipPath>
<clipPath id="clip1_1_105">
<rect width="90" height="22" fill="white" transform="translate(0 0.159912)"/>
</clipPath>
<clipPath id="clip2_1_105">
<rect width="90" height="22" fill="white" transform="translate(0 0.159912)"/>
</clipPath>
</defs>
</svg>
