<svg width="64" height="65" viewBox="0 0 64 65" fill="none" xmlns="http://www.w3.org/2000/svg">
<g clip-path="url(#clip0_1_1806)">
<g clip-path="url(#clip1_1_1806)">
<path d="M11.6367 32.4995V18.7021C11.6583 17.8179 11.8539 16.9466 12.2123 16.138C12.5707 15.3295 13.0849 14.5994 13.7256 13.9896C14.3662 13.3798 15.1208 12.9023 15.9461 12.5842C16.7714 12.2661 17.6512 12.1138 18.5354 12.1359H45.4653C46.3775 12.1131 47.2848 12.2759 48.1321 12.6145C48.9794 12.9532 49.749 13.4605 50.3942 14.1057C51.0394 14.7509 51.5467 15.5205 51.8853 16.3678C52.224 17.2151 52.3868 18.1224 52.364 19.0346V46.2138C52.3533 47.1051 52.1657 47.9853 51.8121 48.8035C51.4585 49.6217 50.9459 50.3616 50.3042 50.9801C49.6624 51.5987 48.9042 52.0837 48.0736 52.4069C47.2429 52.7302 46.3563 52.8852 45.4653 52.8632H18.5354C16.7419 52.8856 15.0119 52.2001 13.7204 50.9553C12.429 49.7106 11.6803 48.0069 11.6367 46.2138V32.5826V32.4995ZM19.0341 32.4995V43.1385C19.0341 44.6346 20.1146 45.4658 21.3614 45.4658H42.7224C44.0523 45.4658 44.9666 44.6346 44.9666 43.2216C44.9685 35.8796 44.9685 28.5376 44.9666 21.1956C44.7172 20.1982 43.803 19.5333 42.7224 19.5333H21.112C20.2809 19.5333 19.5328 20.032 19.2004 20.8632L19.0341 21.9437V32.4995ZM26.5146 36.6554C26.5146 37.4865 26.9302 38.0684 27.7614 38.0684H36.1562C36.9874 38.0684 37.5692 37.5697 37.5692 36.6554V28.3437C37.5692 27.4294 37.0705 26.9307 36.1562 26.9307H27.8445C26.9302 26.9307 26.4315 27.4294 26.4315 28.3437V36.6554H26.5146Z" fill="white"/>
</g>
</g>
<defs>
<clipPath id="clip0_1_1806">
<rect width="64" height="64" fill="white" transform="translate(0 0.5)"/>
</clipPath>
<clipPath id="clip1_1_1806">
<rect width="64" height="64" fill="white" transform="translate(0 0.5)"/>
</clipPath>
</defs>
</svg>
