<svg width="125" height="34" viewBox="0 0 125 34" fill="none" xmlns="http://www.w3.org/2000/svg">
<g clip-path="url(#clip0_3_2172)">
<g clip-path="url(#clip1_3_2172)">
<g clip-path="url(#clip2_3_2172)">
<path d="M17.6602 31.0939C15.8104 31.4117 13.9281 31.507 11.9809 31.7608L6.04178 14.7387V32.4914C4.192 32.6819 2.50446 32.9359 0.751953 33.19V0.669983H5.68502L12.4352 19.1215V0.669983H17.6602V31.0939ZM27.883 12.5792C29.8953 12.5792 32.9784 12.4839 34.8282 12.4839V17.565C32.5238 17.565 29.8304 17.565 27.883 17.6603V25.2188C30.9338 25.0283 33.9844 24.774 37.0674 24.6787V29.5692L22.6904 30.6809V0.669983H37.0674V5.75124H27.883V12.5792ZM56.3772 5.75136H50.9899V29.1251C49.2374 29.1251 47.4849 29.1251 45.7976 29.1884V5.75136H40.4103V0.669983H56.3774L56.3772 5.75136ZM64.815 12.2299H71.9224V17.3111H64.815V28.8393H59.7194V0.669983H74.2266V5.75124H64.815V12.2299ZM82.6644 24.393C85.6177 24.4564 88.6033 24.6791 91.4918 24.8376V29.8554C86.851 29.5694 82.2101 29.2839 77.472 29.1884V0.669983H82.6644V24.393ZM95.873 30.2047C97.5281 30.3002 99.2806 30.3955 100.968 30.5857V0.669983H95.873V30.2047ZM123.718 0.669983L117.13 16.1361L123.718 33.19C121.771 32.9359 119.824 32.5865 117.877 32.269L114.145 22.8688L110.348 31.507C108.465 31.1891 106.648 31.0939 104.766 30.8398L111.451 15.9453L105.414 0.669983H110.997L114.404 9.21285L118.039 0.669983H123.718Z" fill="black"/>
</g>
</g>
</g>
<defs>
<clipPath id="clip0_3_2172">
<rect width="124" height="32.52" fill="white" transform="translate(0.5 0.669983)"/>
</clipPath>
<clipPath id="clip1_3_2172">
<rect width="124" height="32.52" fill="white" transform="translate(0.5 0.669983)"/>
</clipPath>
<clipPath id="clip2_3_2172">
<rect width="123.982" height="32.52" fill="white" transform="translate(0.508789 0.669983)"/>
</clipPath>
</defs>
</svg>
