<svg width="65" height="65" viewBox="0 0 65 65" fill="none" xmlns="http://www.w3.org/2000/svg">
<g clip-path="url(#clip0_1_1766)">
<g clip-path="url(#clip1_1_1766)">
<path d="M20.6083 37.6166C20.6083 39.9479 18.7039 41.8524 16.3725 41.8524C14.0412 41.8524 12.1367 39.9479 12.1367 37.6166C12.1367 35.2853 14.0412 33.3809 16.3725 33.3809H20.6083V37.6166Z" fill="white"/>
<path d="M22.7422 37.6167C22.7422 35.2853 24.6466 33.3809 26.9779 33.3809C29.3093 33.3809 31.2137 35.2853 31.2137 37.6167V48.2225C31.2137 50.5539 29.3093 52.4583 26.9779 52.4583C24.6466 52.4583 22.7422 50.5539 22.7422 48.2225V37.6167Z" fill="white"/>
<path d="M26.9779 20.6083C24.6466 20.6083 22.7422 18.7039 22.7422 16.3725C22.7422 14.0412 24.6466 12.1367 26.9779 12.1367C29.3093 12.1367 31.2137 14.0412 31.2137 16.3725V20.6083H26.9779Z" fill="white"/>
<path d="M26.9784 22.7422C29.3097 22.7422 31.2142 24.6466 31.2142 26.9779C31.2142 29.3093 29.3097 31.2137 26.9784 31.2137H16.3725C14.0412 31.2137 12.1367 29.3093 12.1367 26.9779C12.1367 24.6466 14.0412 22.7422 16.3725 22.7422H26.9784Z" fill="white"/>
<path d="M43.9873 26.9779C43.9873 24.6466 45.8918 22.7422 48.2231 22.7422C50.5545 22.7422 52.4589 24.6466 52.4589 26.9779C52.4589 29.3093 50.5545 31.2137 48.2231 31.2137H43.9873V26.9779Z" fill="white"/>
<path d="M41.8525 26.9784C41.8525 29.3097 39.9479 31.2142 37.6167 31.2142C35.2853 31.2142 33.3809 29.3097 33.3809 26.9784V16.3725C33.3809 14.0412 35.2853 12.1367 37.6167 12.1367C39.9479 12.1367 41.8525 14.0412 41.8525 16.3725V26.9784Z" fill="white"/>
<path d="M37.6167 43.9873C39.9479 43.9873 41.8525 45.8918 41.8525 48.2231C41.8525 50.5545 39.9479 52.4589 37.6167 52.4589C35.2853 52.4589 33.3809 50.5545 33.3809 48.2231V43.9873H37.6167Z" fill="white"/>
<path d="M37.6166 41.8524C35.2853 41.8524 33.3809 39.9479 33.3809 37.6166C33.3809 35.2853 35.2853 33.3809 37.6166 33.3809H48.2225C50.5539 33.3809 52.4583 35.2853 52.4583 37.6166C52.4583 39.9479 50.5539 41.8524 48.2225 41.8524H37.6166Z" fill="white"/>
</g>
</g>
<defs>
<clipPath id="clip0_1_1766">
<rect width="64" height="64" fill="white" transform="translate(0.5 0.5)"/>
</clipPath>
<clipPath id="clip1_1_1766">
<rect width="64" height="64" fill="white" transform="translate(0.5 0.5)"/>
</clipPath>
</defs>
</svg>
