<svg width="133" height="19" viewBox="0 0 133 19" fill="none" xmlns="http://www.w3.org/2000/svg">
<g clip-path="url(#clip0_1_73)">
<g clip-path="url(#clip1_1_73)">
<g clip-path="url(#clip2_1_73)">
<path d="M5.44969 15.2999H8.50969C10.8697 15.2999 12.0597 14.5199 12.0597 13.0099C12.0597 11.5399 10.7897 10.7299 8.31969 10.7299H5.44969V15.2999ZM5.44969 4.28986V8.52986H8.13969C10.1497 8.52986 11.1997 7.77986 11.1997 6.40986C11.1997 5.00986 10.1197 4.28986 8.09969 4.28986H5.45969H5.44969ZM1.17969 17.5799V15.2999H2.97969V4.28986H1.17969V1.99986H8.37969C11.6797 1.99986 13.6897 3.52986 13.6897 6.19986C13.7069 6.92541 13.4934 7.63771 13.0802 8.23428C12.6669 8.83086 12.075 9.28097 11.3897 9.51986C13.2397 10.0299 14.5497 11.3499 14.5497 13.1499C14.5497 15.9899 12.3497 17.5799 8.74969 17.5799H1.17969ZM27.5997 9.45986C27.3397 8.55986 26.6597 8.01986 25.7797 8.01986C23.7097 8.01986 21.7497 9.54986 21.7497 12.3399V15.2999H25.7297V17.5799H16.8597V15.2999H19.3897V8.41986H17.3997V6.13986H21.7197V8.05986C22.1362 7.33023 22.7458 6.72953 23.4814 6.32377C24.2171 5.91801 25.0504 5.72289 25.8897 5.75986C28.0897 5.75986 29.4597 7.01986 29.8597 8.80986L27.5997 9.45986ZM39.6897 12.9599C38.7446 12.6457 37.7556 12.4836 36.7597 12.4799C35.2597 12.4799 33.8097 12.9599 33.8097 14.3299C33.8097 15.3499 34.7197 15.8299 35.9797 15.8299C37.7297 15.8299 39.6797 14.8899 39.6797 13.2799V12.9599H39.6897ZM39.6897 10.9199V10.2699C39.6897 8.66986 38.3997 7.98986 36.9997 7.98986C35.6897 7.98986 34.5597 8.52986 33.6497 9.35986L32.0897 7.66986C33.1597 6.66986 34.6897 5.76986 36.9997 5.76986C39.8797 5.76986 42.0997 7.28986 42.0997 10.1899V15.2899H43.7697V17.5799H39.6897V16.3599C39.0697 17.3599 37.4097 17.9399 35.7697 17.9399C33.3997 17.9399 31.3697 16.7399 31.3697 14.3399C31.3697 11.5299 34.1297 10.4499 36.6497 10.4499C37.8897 10.4499 38.9097 10.6899 39.6897 10.9099V10.9199ZM53.6997 3.85986H51.0497V0.359863H53.7097V3.85986H53.6997ZM58.1097 15.2999V17.5799H46.5597V15.2999H51.3397V8.41986H47.6997V6.13986H53.7197V15.2999H58.1197H58.1097ZM60.9597 15.2999H62.6997V8.41986H61.0597V6.13986H65.0397V7.61986C65.7397 6.48986 67.1897 5.75986 68.9597 5.75986C71.5097 5.75986 73.3397 7.36986 73.3397 9.97986V15.2999H75.0797V17.5799H69.1497V15.2999H70.9697V10.6199C70.9697 8.63986 69.7697 8.06986 68.6697 8.06986C66.8697 8.06986 65.0697 9.41986 65.0697 11.4799V15.2999H66.8897V17.5799H60.9597V15.2999ZM78.3297 8.41986H75.3497V6.13986H78.3297V1.99986H80.6897V6.13986H86.2497V8.41986H80.6997V13.2199C80.6997 14.9999 81.9397 15.7199 83.3597 15.7199C84.6997 15.7199 85.8297 14.9699 86.6597 14.1399L88.2497 15.7799C87.6332 16.4653 86.879 17.0129 86.0363 17.3869C85.1937 17.7608 84.2816 17.9527 83.3597 17.9499C80.4897 17.9499 78.3397 16.3699 78.3397 13.3099V8.41986H78.3297ZM101.13 9.45986C100.86 8.55986 100.19 8.01986 99.2997 8.01986C97.2397 8.01986 95.2797 9.54986 95.2797 12.3399V15.2999H99.2497V17.5799H90.3897V15.2999H92.9097V8.41986H90.9297V6.13986H95.2497V8.05986C95.6654 7.33178 96.2734 6.7321 97.0071 6.32643C97.7408 5.92077 98.572 5.72476 99.4097 5.75986C101.61 5.75986 102.98 7.01986 103.39 8.80986L101.13 9.45986ZM107.5 10.6799H114.53C114.362 9.90114 113.932 9.20378 113.311 8.70485C112.69 8.20593 111.916 7.93581 111.12 7.93986C110.292 7.911 109.48 8.16749 108.819 8.66635C108.158 9.16521 107.689 9.87611 107.49 10.6799H107.5ZM117.03 15.8299C115.84 17.0699 113.75 17.9499 111.41 17.9499C107.57 17.9499 104.89 15.3799 104.89 11.8499C104.89 8.34986 107.49 5.75986 111.12 5.75986C114.72 5.75986 117.24 8.52986 117.24 12.2899V12.6899H107.39C107.79 14.5899 109.37 15.7499 111.44 15.7499C113.16 15.7499 114.64 15.0499 115.44 14.1699L117.03 15.8299ZM122.18 10.6799H129.22C129.052 9.90114 128.622 9.20378 128.001 8.70485C127.38 8.20593 126.606 7.93581 125.81 7.93986C124.982 7.911 124.17 8.16749 123.509 8.66635C122.848 9.16521 122.379 9.87611 122.18 10.6799ZM131.71 15.8299C130.53 17.0699 128.44 17.9499 126.11 17.9499C122.26 17.9499 119.58 15.3799 119.58 11.8499C119.58 8.34986 122.18 5.75986 125.81 5.75986C129.41 5.75986 131.93 8.52986 131.93 12.2899V12.6899H122.07C122.47 14.5899 124.07 15.7499 126.13 15.7499C127.85 15.7499 129.33 15.0499 130.13 14.1699L131.72 15.8299H131.71Z" fill="black"/>
</g>
</g>
</g>
<defs>
<clipPath id="clip0_1_73">
<rect width="133" height="18" fill="white" transform="translate(0 0.159912)"/>
</clipPath>
<clipPath id="clip1_1_73">
<rect width="133" height="18" fill="white" transform="translate(0 0.159912)"/>
</clipPath>
<clipPath id="clip2_1_73">
<rect width="133" height="18" fill="white" transform="translate(0 0.159912)"/>
</clipPath>
</defs>
</svg>
