<svg width="99" height="43" viewBox="0 0 99 43" fill="none" xmlns="http://www.w3.org/2000/svg">
<g clip-path="url(#clip0_3_2158)">
<g clip-path="url(#clip1_3_2158)">
<g clip-path="url(#clip2_3_2158)">
<path fill-rule="evenodd" clip-rule="evenodd" d="M97.4471 22.6023C97.4471 15.7117 94.1096 10.2746 87.7303 10.2746C81.3242 10.2746 77.4482 15.7117 77.4482 22.5485C77.4482 30.6504 82.024 34.7417 88.5916 34.7417C91.7947 34.7417 94.2172 34.015 96.0475 32.9921V27.6089C94.2172 28.5239 92.1177 29.0892 89.453 29.0892C86.8421 29.0892 84.5272 28.1741 84.2312 24.9979H97.3933C97.3933 24.648 97.4471 23.2483 97.4471 22.6023ZM84.1504 20.0453C84.1504 17.0037 86.0076 15.7387 87.7034 15.7387C89.3453 15.7387 91.0949 17.0037 91.0949 20.0453H84.1504Z" fill="black"/>
<path fill-rule="evenodd" clip-rule="evenodd" d="M67.0579 10.2746C64.4201 10.2746 62.7244 11.5128 61.7823 12.3741L61.4324 10.7053H55.5107V42.0899L62.2399 40.6633L62.2668 33.046C63.2357 33.7458 64.6624 34.7417 67.031 34.7417C71.8491 34.7417 76.2365 30.8658 76.2365 22.3331C76.2096 14.5275 71.7684 10.2746 67.0579 10.2746ZM65.4429 28.8201C63.8549 28.8201 62.9128 28.2548 62.2668 27.555L62.2399 17.569C62.9397 16.7884 63.9087 16.25 65.4429 16.25C67.8923 16.25 69.5881 18.9956 69.5881 22.5216C69.5881 26.1284 67.9193 28.8201 65.4429 28.8201Z" fill="black"/>
<path fill-rule="evenodd" clip-rule="evenodd" d="M46.252 8.68701L53.0079 7.23352V1.76947L46.252 3.19605V8.68701Z" fill="black"/>
<path d="M53.0079 10.7324H46.252V34.2844H53.0079V10.7324Z" fill="black"/>
<path fill-rule="evenodd" clip-rule="evenodd" d="M39.0112 12.7247L38.5806 10.7329H32.7666V34.2848H39.4957V18.3233C41.0838 16.2508 43.7755 16.6276 44.6098 16.9236V10.7329C43.7486 10.4099 40.5994 9.81771 39.0112 12.7247Z" fill="black"/>
<path fill-rule="evenodd" clip-rule="evenodd" d="M25.5535 4.89191L18.9858 6.29157L18.959 27.8516C18.959 31.8353 21.9467 34.7692 25.9303 34.7692C28.1375 34.7692 29.7525 34.3654 30.6407 33.881V28.4169C29.7794 28.7668 25.5266 30.005 25.5266 26.0214V16.466H30.6407V10.7328H25.5266L25.5535 4.89191Z" fill="black"/>
<path fill-rule="evenodd" clip-rule="evenodd" d="M7.35773 17.569C7.35773 16.5192 8.21906 16.1155 9.64562 16.1155C11.6912 16.1155 14.2753 16.7345 16.321 17.8382V11.5128C14.0868 10.6245 11.8797 10.2746 9.64562 10.2746C4.18158 10.2746 0.547852 13.1278 0.547852 17.892C0.547852 25.3209 10.7761 24.1366 10.7761 27.3397C10.7761 28.5778 9.69946 28.9816 8.19214 28.9816C5.95807 28.9816 3.10491 28.0664 0.843932 26.8282V33.2343C3.34717 34.311 5.87732 34.7686 8.19214 34.7686C13.7908 34.7686 17.6398 31.9962 17.6398 27.1782C17.6129 19.1571 7.35773 20.5836 7.35773 17.569Z" fill="black"/>
</g>
</g>
</g>
<defs>
<clipPath id="clip0_3_2158">
<rect width="98" height="42.14" fill="white" transform="translate(0.5 0.859985)"/>
</clipPath>
<clipPath id="clip1_3_2158">
<rect width="98" height="42.14" fill="white" transform="translate(0.5 0.859985)"/>
</clipPath>
<clipPath id="clip2_3_2158">
<rect width="97.9755" height="42.14" fill="white" transform="translate(0.512695 0.859985)"/>
</clipPath>
</defs>
</svg>
