<svg width="65" height="65" viewBox="0 0 65 65" fill="none" xmlns="http://www.w3.org/2000/svg">
<g clip-path="url(#clip0_1_1793)">
<g clip-path="url(#clip1_1_1793)">
<g clip-path="url(#clip2_1_1793)">
<path fill-rule="evenodd" clip-rule="evenodd" d="M32.5 0.5C14.82 0.5 0.5 14.82 0.5 32.5C0.5 46.66 9.66 58.6201 22.3799 62.8601C23.9799 63.14 24.58 62.18 24.58 61.3401C24.58 60.58 24.5401 58.0601 24.5401 55.38C16.5 56.8601 14.42 53.4199 13.78 51.62C13.4199 50.6999 11.86 47.86 10.5 47.0999C9.38 46.5 7.78 45.0199 10.46 44.98C12.98 44.9399 14.7801 47.3 15.38 48.26C18.26 53.0999 22.8601 51.7401 24.7001 50.9C24.98 48.82 25.8199 47.4199 26.74 46.6199C19.62 45.8199 12.18 43.06 12.18 30.82C12.18 27.3399 13.4201 24.4599 15.46 22.2199C15.14 21.4199 14.02 18.1399 15.78 13.7399C15.78 13.7399 18.4601 12.9 24.58 17.0201C27.14 16.3001 29.86 15.94 32.58 15.94C35.3 15.94 38.02 16.3001 40.58 17.0201C46.7001 12.8601 49.38 13.7399 49.38 13.7399C51.14 18.1399 50.02 21.4199 49.7 22.2199C51.7401 24.4599 52.98 27.3 52.98 30.82C52.98 43.0999 45.5001 45.8199 38.3801 46.6199C39.54 47.62 40.5401 49.54 40.5401 52.5401C40.5401 56.82 40.5 60.26 40.5 61.3401C40.5 62.18 41.1001 63.1801 42.7001 62.8601C55.3401 58.6201 64.5 46.6199 64.5 32.5C64.5 14.82 50.18 0.5 32.5 0.5Z" fill="white"/>
</g>
</g>
</g>
<defs>
<clipPath id="clip0_1_1793">
<rect width="64" height="64" fill="white" transform="translate(0.5 0.5)"/>
</clipPath>
<clipPath id="clip1_1_1793">
<rect width="64" height="64" fill="white" transform="translate(0.5 0.5)"/>
</clipPath>
<clipPath id="clip2_1_1793">
<rect width="64" height="64" fill="white" transform="translate(0.5 0.5)"/>
</clipPath>
</defs>
</svg>
