<svg width="92" height="46" viewBox="0 0 92 46" fill="none" xmlns="http://www.w3.org/2000/svg">
<g clip-path="url(#clip0_3_2144)">
<g clip-path="url(#clip1_3_2144)">
<g clip-path="url(#clip2_3_2144)">
<path d="M49.8413 0.341899C49.5473 0.387198 49.2646 1.47151 48.6965 2.03632C48.281 2.44399 47.7623 2.41851 47.4867 2.92246C47.3821 3.11072 47.416 3.43206 47.2973 3.74064C47.0656 4.35781 46.2487 4.41303 46.2487 5.08541C46.2458 5.81158 46.9299 5.95032 47.5221 6.46558C47.9842 6.88033 48.0294 7.16627 48.5891 7.36728C49.0668 7.53007 49.7776 6.99783 50.4179 7.18893C50.9437 7.34606 51.4468 7.45929 51.5655 8.00003C51.6701 8.4983 51.5585 9.2712 50.921 9.18202C50.7062 9.15795 49.7749 8.8437 48.6301 8.96544C47.2492 9.12256 45.6735 9.57413 45.5194 11.1156C45.4346 11.9777 46.4988 12.9941 47.5263 12.7874C48.2371 12.6473 47.9008 11.8079 48.288 11.4002C48.7954 10.8778 51.6701 13.2234 54.3427 13.2234C55.4676 13.2234 56.3043 12.9389 57.1354 12.0669C57.2131 12.0004 57.3077 11.8574 57.4279 11.8489C57.541 11.8574 57.7388 11.9693 57.8038 12.0174C59.9563 13.75 61.583 17.2252 69.4933 17.2662C70.6055 17.2719 71.8733 17.8041 72.9078 18.7497C73.8307 19.6047 74.3706 20.9339 74.8949 22.2829C75.6864 24.3072 77.1053 26.2762 79.2564 28.4675C79.3736 28.585 81.1445 29.9637 81.2858 30.0671C81.3085 30.0813 81.4385 30.3926 81.3933 30.5667C81.341 31.8804 81.1502 35.701 83.9937 35.8737C84.6891 35.9091 84.5068 35.4192 84.5068 35.0824C84.5054 34.417 84.3838 33.756 84.7343 33.0752C85.2134 32.138 83.7181 31.7063 83.762 29.6807C83.7931 28.1703 82.5268 28.4278 81.8837 27.2771C81.5134 26.6103 81.1841 26.2564 81.2081 25.4411C81.3523 20.8518 80.2329 17.8367 79.6747 17.0964C79.2394 16.5372 78.879 16.315 79.2775 16.0559C81.6505 14.4861 82.189 13.0253 82.189 13.0253C83.451 10.054 84.5859 7.34039 86.1504 6.14567C86.4656 5.89936 87.274 5.29492 87.7701 5.0571C89.23 4.36772 89.9989 3.95014 90.4229 3.5368C91.0941 2.8814 91.6242 1.51539 90.9811 0.687296C90.1812 -0.334739 88.7975 0.47637 88.187 0.838755C83.8242 3.43206 83.1811 8.00711 81.6703 10.6344C80.4647 12.7337 78.5045 14.2752 76.752 14.4011C75.4376 14.4988 74.0214 14.2327 72.611 13.6127C69.1809 12.1065 67.3041 10.1615 66.8617 9.8176C65.9402 9.10558 58.7861 2.07171 52.9901 1.78435C52.9901 1.78435 52.2708 0.341899 52.0899 0.317834C51.6659 0.26404 51.232 1.17991 50.921 1.28606C50.6285 1.38375 50.1366 0.293769 49.8413 0.341899Z" fill="black"/>
<path d="M24.3255 42.323C23.78 42.3103 23.3164 41.8615 23.3164 41.3066L23.3178 23.1989H17.3594V43.1597C17.3594 44.1377 18.1508 44.9361 19.1218 44.9361H29.5364C30.5144 44.9361 31.2959 44.1377 31.2959 43.1597V23.1989H25.3431L25.3375 41.3066C25.3375 41.8615 24.8739 42.3103 24.3255 42.323Z" fill="black"/>
<path d="M44.2758 23.1989H35.2575C34.1905 23.1989 33.3213 24.0681 33.3213 25.1482V44.9361H39.2854V26.7845C39.2897 26.2282 39.7391 25.788 40.2931 25.788C40.85 25.788 41.2966 26.2183 41.3093 26.7689V44.9361H47.2494V26.7689C47.2565 26.2183 47.7031 25.788 48.2585 25.788C48.8097 25.788 49.2648 26.2282 49.269 26.7845V44.9361H55.2332V25.1482C55.2332 24.0681 54.3625 23.1989 53.2955 23.1989H44.2758Z" fill="black"/>
<path d="M9.38489 26.8228C9.38913 26.2183 8.89729 25.788 8.37579 25.788H7.36386V36.7825H8.37579C8.90154 36.7825 9.38913 36.3636 9.38489 35.7619V26.8228ZM13.3831 39.4735H7.36386V44.9361H1.4082V23.1989H13.4213C14.4968 23.1989 15.3363 24.0737 15.3363 25.1566V37.5158C15.3363 38.6001 14.4643 39.4735 13.3831 39.4735Z" fill="black"/>
<path d="M75.6704 40.0751C74.4733 40.0751 73.4684 41.1112 73.4684 42.3669C73.4684 43.6267 74.4733 44.6544 75.7085 44.6544C76.9339 44.6544 77.926 43.6267 77.926 42.3669C77.926 41.1085 76.9339 40.0751 75.7085 40.0751H75.6704ZM78.3528 42.3598C78.3528 43.8362 77.1713 45.0366 75.7085 45.0366C74.2302 45.0366 73.043 43.8447 73.043 42.3598C73.043 40.9032 74.2301 39.6858 75.6647 39.6858C77.1713 39.6858 78.3528 40.8664 78.3528 42.3598Z" fill="black"/>
<path d="M75.4332 42.1897C75.8473 42.1897 76.065 42.0425 76.065 41.7481C76.065 41.4862 75.8544 41.3517 75.4515 41.3517H75.3329V42.1897H75.4332ZM76.9581 43.9082H76.2472L75.3329 42.6894V43.9082H74.752V40.8266H75.3626C76.1922 40.8266 76.6331 41.1408 76.6331 41.741C76.6331 42.1416 76.3731 42.4969 76.0098 42.603L75.9675 42.6187L76.9581 43.9082Z" fill="black"/>
<path d="M65.2315 36.7868V26.7774C65.2174 26.2239 64.7722 25.7993 64.2168 25.7993C63.667 25.7993 63.2119 26.2409 63.2077 26.793V36.7868H65.2315ZM65.2315 44.9361V39.4792H63.2077V44.9361H57.2549V25.1482C57.2549 24.0681 58.124 23.1989 59.191 23.1989H69.2481C70.318 23.1989 71.1872 24.0681 71.1872 25.1482V44.9361H65.2315Z" fill="black"/>
</g>
</g>
</g>
<defs>
<clipPath id="clip0_3_2144">
<rect width="91" height="45.5" fill="white" transform="translate(0.5 0.190002)"/>
</clipPath>
<clipPath id="clip1_3_2144">
<rect width="91" height="45.5" fill="white" transform="translate(0.5 0.190002)"/>
</clipPath>
<clipPath id="clip2_3_2144">
<rect width="91" height="45.5" fill="white" transform="translate(0.5 0.190002)"/>
</clipPath>
</defs>
</svg>
