<svg width="179" height="24" viewBox="0 0 179 24" fill="none" xmlns="http://www.w3.org/2000/svg">
<g clip-path="url(#clip0_3_2154)">
<g clip-path="url(#clip1_3_2154)">
<g clip-path="url(#clip2_3_2154)">
<path fill-rule="evenodd" clip-rule="evenodd" d="M10.2303 9.27714V2.86124H14.6577V9.27714C15.1642 8.11401 16.2898 7.0822 17.4341 6.3881H22.2555C22.2251 6.41081 22.1943 6.43377 22.1633 6.45697C20.6026 7.62216 18.2221 9.39953 18.2221 10.8342C18.2221 11.5471 19.1038 11.6972 19.6103 11.6972H22.6494V15.1865H17.8844C16.8151 15.1865 15.2767 14.8113 14.6577 13.1605V17.8317H10.2303V13.1605C9.61127 14.7926 8.07295 15.1865 7.00365 15.1865H2.23861V11.6972H5.27772C5.78424 11.6972 6.66596 11.5659 6.66596 10.8342C6.66596 9.39953 4.28539 7.62216 2.7248 6.45697C2.69372 6.43377 2.66297 6.41081 2.63257 6.3881H7.45387C8.59826 7.0822 9.72384 8.11401 10.2303 9.27714ZM24.3753 10.8718C24.3753 5.20623 19.0288 0.610043 12.444 0.610043C5.84052 0.591283 0.512695 5.18747 0.512695 10.8718C0.512695 16.5372 5.85928 21.1334 12.444 21.1334C19.0288 21.1334 24.3753 16.5372 24.3753 10.8718ZM135.584 2.37356C138.698 2.37356 141.869 3.72427 141.737 7.5138H137.46C137.46 6.5195 136.878 5.39391 135.434 5.39391C133.989 5.39391 132.283 6.48198 131.983 9.59612C131.682 12.7103 132.076 15.0928 134.609 15.0928C136.804 15.0928 137.235 13.198 137.273 12.8416H141.512C141.512 14.53 140.124 18.0006 134.365 18.0006C128.287 18.0006 127.217 13.5732 127.705 9.4648C128.136 6.01298 130.594 2.37356 135.584 2.37356ZM142.863 2.76772L141.813 17.8507H145.658L146.709 2.76772H142.863ZM162.504 8.88346H162.467L162.317 7.32639H158.434C158.471 8.47078 158.452 9.1086 158.378 10.0466L157.834 17.8507H161.904L162.148 13.9299C162.242 12.1853 162.336 10.6845 164.943 10.6845C165.206 10.6845 165.487 10.6845 165.769 10.7032L166.013 7.3452C164.7 7.3452 163.518 7.57028 162.504 8.88346ZM127.424 9.44619H122.34L120.708 12.7292H125.792L127.424 9.44619ZM114.442 22.9159H110.783L113.147 18.0196L109.283 7.32639H113.766L115.492 13.8549L118.25 7.32639H121.946L114.442 22.9159ZM57.5617 8.75215V7.32639L53.6033 7.34513L52.8717 17.8695H57.0364L57.4491 11.8287L57.449 11.8184C57.4476 11.6113 57.434 9.54002 59.4376 9.54002C60.7133 9.54002 60.8446 10.6469 60.8258 11.6787L60.3756 17.8507H64.4279L64.8216 11.8287C64.8229 11.8187 64.8241 11.7967 64.8254 11.7646C64.8411 11.3779 64.9147 9.54002 66.6976 9.54002C68.0296 9.54002 68.1044 10.6844 68.0484 11.6787L67.617 17.8507H71.6319L72.1381 10.8157C72.2884 8.48946 70.6936 7.02622 68.405 7.02622C66.8102 7.06371 65.3656 7.68278 64.5594 8.93974C64.2776 7.87038 62.7957 7.08251 61.3699 7.08251C60.3756 7.08251 58.7623 7.21382 57.5991 8.75215H57.5617ZM49.0634 7.32639H52.8154L52.0837 17.8507H48.3317L49.0634 7.32639ZM37.8449 9.46499L43.1165 2.76772H48.1066L42.5537 9.23991L47.8252 17.8507H42.5349L37.8449 9.46499ZM33.8115 2.76772H38.2201L37.1696 17.8507H32.7422L33.8115 2.76772ZM90.6545 15.8997C89.1533 15.8997 88.8345 14.7178 88.9471 13.2733V13.2921H96.4132C96.8075 9.57763 95.4567 7.10131 91.2356 7.02622C88.0654 6.97 85.4014 8.93974 85.1762 12.2603C84.9134 16.2374 86.5831 18.0196 90.8608 18.0196C92.0424 18.0196 93.1493 17.907 94.1058 17.3255C95.1567 16.7439 96.0573 15.7496 96.1321 14.474H92.455C92.455 15.1681 91.7613 15.8997 90.6545 15.8997ZM92.3802 9.70894C92.6613 10.1592 92.7927 10.722 92.7556 11.2847V11.266H89.1345C89.3225 10.0841 89.6784 9.08986 91.067 9.03357C91.667 8.99603 92.0984 9.27746 92.3802 9.70894ZM73.489 2.76772H77.4283L77.0158 8.77089H77.0906C77.8786 7.8329 78.9855 7.04497 80.4111 7.04497C83.638 7.04497 84.8763 9.87773 84.6888 12.4291C84.5197 15.018 83.15 17.982 79.5672 17.982C78.3478 17.982 77.1843 17.3067 76.6403 16.5375H76.5655L76.3215 17.8132H72.457L73.489 2.76772ZM76.6403 12.7292C76.5844 14.0049 76.9032 15.8246 78.3478 15.8246C80.1671 15.8246 80.6174 14.0049 80.6929 12.5416C80.7489 11.2472 80.5048 9.33368 78.9477 9.35248C76.9592 9.35248 76.6969 11.341 76.6403 12.7292ZM105.493 2.76772L104.443 17.8507H108.289L109.339 2.76772H105.493ZM101.197 8.88346H101.235C102.248 7.57028 103.43 7.3452 104.724 7.3452L104.48 10.7032C104.218 10.6845 103.936 10.6845 103.674 10.6845C101.066 10.6845 100.972 12.1853 100.878 13.9299L100.634 17.8507H96.5635L97.1075 10.0466C97.1823 9.1086 97.2012 8.47078 97.1641 7.32639H101.047L101.197 8.88346ZM173.986 7.32639L170.249 11.9792L170.891 2.76772H166.914L165.863 17.8507H169.84L170.246 12.02L173.385 17.8507H178.263L174.436 11.7725L178.488 7.32639H173.986ZM153.181 16.5562H153.218L153.443 17.8507H157.196C157.139 16.5938 157.139 16.1248 157.177 15.6933L157.477 10.6469C157.646 8.05798 155.038 6.98868 152.899 6.98868C151.737 6.98868 150.367 7.10125 149.241 7.60776C148.134 8.07678 147.534 8.99597 147.46 10.3655H151.08C151.099 9.85893 151.361 8.78963 152.487 8.78963C153.876 8.78963 153.772 9.99905 153.694 10.9127C153.684 11.0231 153.675 11.1293 153.669 11.2284H152.412C148.603 11.2284 146.465 12.5791 146.465 14.6615C146.465 16.5187 147.497 17.9257 149.992 17.9257C151.53 17.9257 152.337 17.3442 153.181 16.5562ZM153.556 12.7162C153.462 14.1221 153.347 15.8434 151.493 15.8434C150.742 15.8434 150.217 15.243 150.254 14.4552C150.311 13.7235 150.761 13.2357 151.361 12.9356C151.861 12.7025 152.538 12.7058 153.274 12.7095C153.367 12.71 153.462 12.7104 153.556 12.7104V12.7162ZM49.4386 2.76772H53.1906L53.003 5.48791H49.251L49.4386 2.76772Z" fill="black"/>
</g>
</g>
</g>
<defs>
<clipPath id="clip0_3_2154">
<rect width="178" height="22.64" fill="white" transform="translate(0.5 0.609985)"/>
</clipPath>
<clipPath id="clip1_3_2154">
<rect width="178" height="22.64" fill="white" transform="translate(0.5 0.609985)"/>
</clipPath>
<clipPath id="clip2_3_2154">
<rect width="177.976" height="22.64" fill="white" transform="translate(0.512695 0.609985)"/>
</clipPath>
</defs>
</svg>
