<svg width="172" height="24" viewBox="0 0 172 24" fill="none" xmlns="http://www.w3.org/2000/svg">
<g clip-path="url(#clip0_3_2168)">
<g clip-path="url(#clip1_3_2168)">
<g clip-path="url(#clip2_3_2168)">
<path d="M13.3537 2.73099C13.3537 0.874226 11.5898 0.410034 10.1971 0.410034V0.688549C11.0327 0.688549 11.6826 0.967064 11.6826 1.61693C11.6826 1.98829 11.4041 2.54532 10.5685 2.54532C9.91866 2.54532 8.52611 2.17396 7.50489 1.80261C6.29796 1.33842 5.18391 0.967064 4.25553 0.967064C2.39876 0.967064 1.09902 2.35964 1.09902 3.93789C1.09902 5.33046 2.12025 5.79465 2.49159 5.98033L2.58444 5.79465C2.39876 5.60898 2.12025 5.42331 2.12025 4.86627C2.12025 4.49492 2.49159 3.84505 3.41998 3.84505C4.25552 3.84505 5.36958 4.21641 6.85499 4.6806C8.15471 5.05195 9.54733 5.33046 10.29 5.42331V8.3013L8.89744 9.50822V9.601L10.29 10.8079V14.7999C9.54733 15.2641 8.71174 15.357 7.96908 15.357C6.57648 15.357 5.36958 14.9857 4.34836 13.8716L8.15471 12.0148V5.60898L3.51282 7.65142C3.88417 6.44452 4.90539 5.60898 5.92661 5.05195L5.83377 4.77343C3.04863 5.51614 0.541992 8.1156 0.541992 11.2721C0.541992 14.9856 3.60566 17.7708 7.04067 17.7708C10.7542 17.7708 13.168 14.7999 13.168 11.7363H12.9823C12.4253 12.9432 11.5898 14.0573 10.5685 14.6143V10.8079L12.054 9.601V9.50822L10.5685 8.3013V5.42331C11.9611 5.42331 13.3537 4.49492 13.3537 2.73099ZM5.27675 12.9432L4.16268 13.5002C3.51282 12.6647 3.14146 11.5507 3.14146 9.97241C3.14146 9.32252 3.14146 8.57979 3.32714 8.02275L5.27675 7.18723V12.9432ZM15.1176 15.0785L13.9107 16.0069L14.0964 16.1926L14.6534 15.7284L16.6959 17.5851L19.481 15.7284L19.3882 15.5427L18.6454 16.0069L17.7171 15.0785V8.76549L18.4597 8.20845L20.038 9.50822V15.1714C20.038 18.6992 19.2953 19.2562 17.7171 19.8133V20.0917C20.3166 20.1846 22.7303 19.3491 22.7303 14.7999V8.67264L23.5659 8.02275L23.3802 7.83712L22.6375 8.39415L20.3166 6.44452L17.7171 8.39415V0.781388H17.5314L14.2821 3.00951V3.19518C14.6534 3.38086 15.2105 3.56653 15.2105 4.58776L15.1176 15.0785ZM32.107 14.0573L29.7861 15.8212L27.4651 13.9644V12.8504L31.8285 9.87956V9.7867L29.6004 6.44452L24.7728 9.04397V15.1714L23.8444 15.914L24.0301 16.0997L24.8656 15.4498L28.0221 17.7708L32.1998 14.4286L32.107 14.0573ZM27.4651 12.479V7.92997L27.6508 7.83712L29.6932 11.0864L27.4651 12.479ZM49.8391 1.89544C49.8391 1.61693 49.7463 1.33842 49.6534 1.0599H49.4678C49.1892 1.80261 48.8179 2.17396 47.8895 2.17396C47.0539 2.17396 46.497 1.70977 46.1256 1.33842L43.4333 4.40208L43.619 4.58776L44.5473 3.75222C45.1044 4.21641 45.5685 4.58776 46.8683 4.6806V12.3862L41.3908 3.00951C40.9266 2.2668 40.2768 1.24558 38.977 1.24558C37.4916 1.24558 36.1919 2.54532 36.3776 4.58776H36.6561C36.7489 4.03073 37.0275 3.38086 37.6773 3.38086C38.1415 3.38086 38.6057 3.84505 38.8842 4.30924V7.37293C37.2131 7.37293 36.0991 8.1156 36.0991 9.50822C36.0991 10.2509 36.4704 11.365 37.5845 11.6434V11.4578C37.3988 11.2721 37.3059 11.0864 37.3059 10.8079C37.3059 10.3437 37.6773 9.97241 38.3272 9.97241H38.7913V13.8716C36.8418 13.8716 35.2635 14.9856 35.2635 16.8424C35.2635 18.6063 36.7489 19.4419 38.42 19.3491V19.1634C37.3988 19.0705 36.9346 18.6063 36.9346 17.9565C36.9346 17.1209 37.4916 16.7496 38.2343 16.7496C38.977 16.7496 39.6269 17.2138 40.0911 17.7708L42.7834 14.7999L42.5977 14.6143L41.9479 15.357C40.9266 14.4286 40.3696 14.1501 39.1627 13.9644V4.6806L46.5898 17.678H47.1468V4.6806C48.5394 4.58776 49.8391 3.4737 49.8391 1.89544ZM56.6163 14.0573L54.2954 15.8212L51.9744 13.9644V12.8504L56.3378 9.87956V9.7867L54.1097 6.44452L49.2821 9.04397V15.1714L48.3537 15.914L48.5394 16.0997L49.3749 15.4498L52.5314 17.7708L56.7092 14.4286L56.6163 14.0573ZM51.9744 12.479V7.92997L52.1601 7.83712L54.2025 11.0864L51.9744 12.479ZM71.7492 7.46572L71.0988 7.92997L69.3354 6.44452L67.2928 8.3013L68.1283 9.13682V16.0997L65.9001 14.7072V8.95119L66.6429 8.48693L64.5076 6.44452L62.4651 8.3013L63.3007 9.13682V15.8212L63.0222 16.0069L61.0725 14.6143V9.04397C61.0725 7.74427 60.4227 7.37293 59.68 6.90872C59.0301 6.44452 58.6588 6.16601 58.6588 5.51614C58.6588 4.95911 59.2158 4.6806 59.4943 4.49492V4.30924C58.7516 4.30924 56.802 5.05195 56.802 6.81588C56.802 7.74427 57.2662 8.1156 57.7304 8.57979C58.1946 9.04397 58.6588 9.41537 58.6588 10.2509V15.6355L57.6375 16.3782L57.8232 16.5639L58.7516 15.8212L60.8869 17.678L63.2078 16.0997L65.8073 17.678L70.7278 14.7999V8.57979L71.9344 7.65142L71.7492 7.46572ZM89.0171 2.35964L88.0886 3.19518L86.0458 1.33842L82.9822 3.56653V1.5241H82.7041L82.797 16.5639C82.5183 16.5639 81.6827 16.3782 81.0329 16.1926L80.8471 3.65938C80.8471 2.73099 80.1973 1.43125 78.5262 1.43125C76.855 1.43125 75.7413 2.73099 75.7413 4.03073H76.0194C76.1123 3.4737 76.3911 3.00951 76.9479 3.00951C77.5047 3.00951 77.9693 3.38086 77.9693 4.58776V8.20845C76.2982 8.3013 75.2767 9.22967 75.2767 10.4366C75.2767 11.1793 75.6484 12.2933 76.7621 12.2933V12.1077C76.3911 11.922 76.2982 11.6434 76.2982 11.4578C76.2982 10.9008 76.7621 10.7151 77.5047 10.7151H77.8764V16.4711C76.484 16.9352 75.9265 17.9565 75.9265 19.0705C75.9265 20.6488 77.1337 21.7628 78.9901 21.7628C80.2903 21.7628 81.4039 21.5771 82.5183 21.2987C83.4468 21.113 84.6533 20.8345 85.2102 20.8345C85.9535 20.8345 86.2316 21.2058 86.2316 21.67C86.2316 22.3199 85.9535 22.5984 85.5818 22.6912V22.8769C87.0672 22.5984 87.9957 21.67 87.9957 20.2774C87.9957 18.8848 86.6033 18.0493 85.1179 18.0493C84.3753 18.0493 82.797 18.3279 81.6827 18.5135C80.3832 18.792 79.083 18.9777 78.712 18.9777C78.0622 18.9777 77.3196 18.6992 77.3196 17.7708C77.3196 17.0281 77.9693 16.3782 79.5476 16.3782C80.3832 16.3782 81.4039 16.4711 82.4253 16.7496C83.5397 17.0281 84.5604 17.3066 85.4889 17.3066C86.8813 17.3066 88.0886 16.8424 88.0886 14.8928V3.4737L89.2023 2.54532L89.0171 2.35964ZM85.2102 8.02275C84.9321 8.3013 84.5604 8.57979 84.0965 8.57979C83.6326 8.57979 83.168 8.3013 82.9822 8.02275V3.93789L83.9107 3.28802L85.2102 4.49492V8.02275ZM85.2102 10.8079C85.025 10.6222 84.5604 10.3437 84.0965 10.3437C83.6326 10.3437 83.168 10.6222 82.9822 10.8079V8.39415C83.168 8.57979 83.6326 8.85834 84.0965 8.85834C84.5604 8.85834 85.025 8.57979 85.2102 8.39415V10.8079ZM85.2102 15.1714C85.2102 15.914 84.7463 16.6568 83.7248 16.6568H82.9822V11.1793C83.168 10.9936 83.6326 10.7151 84.0965 10.7151C84.5604 10.7151 84.9321 10.9936 85.2102 11.1793V15.1714ZM97.9291 8.57979L94.9584 6.44452L90.4095 9.04397V15.0785L89.481 15.8212L89.5739 16.0069L90.3166 15.4498L93.2873 17.678L97.9291 14.8928V8.57979ZM92.9163 14.4286V7.74427L95.2372 9.41537V16.0069L92.9163 14.4286ZM106.749 6.6302H106.563C106.285 6.81588 106.006 7.00155 105.727 7.00155C105.356 7.00155 104.893 6.81588 104.707 6.53736H104.521L102.943 8.3013L101.364 6.53736L98.5796 8.39415L98.6718 8.57979L99.4145 8.1156L100.343 9.13682V14.9856L99.1364 15.914L99.3222 16.0997L99.879 15.6355L102.107 17.4923L104.985 15.5427L104.893 15.357L104.057 15.8212L102.943 14.8928V8.39415C103.407 8.85834 103.964 9.32252 104.614 9.32252C105.913 9.41537 106.656 8.1156 106.749 6.6302ZM117.89 15.5427L114.733 17.678L110.462 11.1793L113.526 6.44452H113.712C114.083 6.81588 114.64 7.18723 115.29 7.18723C115.94 7.18723 116.404 6.81588 116.683 6.44452H116.868C116.775 8.3013 115.476 9.41537 114.547 9.41537C113.619 9.41537 113.155 8.95119 112.598 8.67264L112.319 9.13682L116.961 16.0069L117.89 15.4498V15.5427ZM107.677 15.0785L106.471 16.0069L106.656 16.1926L107.213 15.7284L109.256 17.5851L112.04 15.7284L111.855 15.5427L111.113 16.0069L110.184 15.0785V0.781388H110.091L106.749 3.00951V3.19518C107.121 3.38086 107.677 3.4737 107.677 4.58776V15.0785ZM133.3 2.73099C133.3 0.874226 131.537 0.410034 130.144 0.410034V0.688549C130.98 0.688549 131.63 0.967064 131.63 1.61693C131.63 1.98829 131.351 2.54532 130.516 2.54532C129.866 2.54532 128.473 2.17396 127.452 1.80261C126.245 1.43125 125.131 1.0599 124.203 1.0599C122.346 1.0599 121.046 2.45248 121.046 4.03073C121.046 5.42331 122.068 5.8875 122.439 6.07317L122.531 5.8875C122.253 5.70182 121.975 5.51614 121.975 4.95911C121.975 4.58776 122.346 3.93789 123.274 3.93789C124.11 3.93789 125.224 4.30924 126.709 4.77343C128.009 5.14479 129.401 5.42331 130.144 5.51614V8.39415L128.752 9.601V9.69385L130.144 10.9008V14.8928C129.401 15.357 128.566 15.4498 127.823 15.4498C126.431 15.4498 125.224 15.0785 124.203 13.9644L128.009 12.1077V5.60898L123.367 7.65142C123.831 6.44452 124.852 5.60898 125.781 4.95911L125.688 4.77343C122.903 5.51614 120.396 8.02275 120.396 11.1793C120.396 14.8928 123.46 17.678 126.895 17.678C130.609 17.678 133.022 14.7072 133.022 11.6434H132.837C132.28 12.8504 131.444 13.9644 130.423 14.5215V10.7151L131.908 9.50822V9.41537L130.516 8.20845V5.42331C131.908 5.42331 133.3 4.49492 133.3 2.73099ZM125.224 12.9432L124.11 13.5002C123.46 12.6647 123.088 11.5507 123.088 9.97241C123.088 9.32252 123.181 8.57979 123.367 8.02275L125.317 7.18723L125.224 12.9432ZM136.55 1.80261H136.457L134.601 3.38086V3.4737L136.179 5.23762H136.365L138.221 3.65938V3.56653L136.55 1.80261ZM139.335 15.5427L138.593 16.0069L137.664 15.0785V8.67264L138.593 8.02275L138.407 7.83712L137.757 8.39415L136.086 6.44452L133.393 8.3013L133.579 8.57979L134.229 8.1156L135.065 9.13682V15.1714L133.858 16.0997L133.951 16.2854L134.601 15.8212L136.643 17.678L139.428 15.8212L139.335 15.5427ZM154.839 15.4498L154.189 15.914L153.168 14.9856V8.67264L154.096 7.92997L153.911 7.74427L153.168 8.39415L151.033 6.44452L148.247 8.39415L146.112 6.44452L143.513 8.39415L141.842 6.44452L139.15 8.3013L139.242 8.57979L139.892 8.1156L140.821 9.13682V15.1714L140.078 15.914L142.213 17.678L144.256 15.8212L143.42 14.9856V8.67264L144.256 8.1156L145.648 9.41537V14.9856L144.906 15.7284L147.041 17.4923L149.083 15.6355L148.247 14.7999V8.67264L148.991 8.20845L150.476 9.50822V15.0785L149.826 15.7284L151.961 17.678L154.839 15.7284V15.4498ZM162.916 14.0573L160.595 15.8212L158.274 13.9644V12.8504L162.638 9.87956V9.7867L160.41 6.44452L155.582 9.04397V15.357L158.831 17.678L163.009 14.3358L162.916 14.0573ZM158.274 12.479V7.92997L158.46 7.83712L160.502 11.0864L158.274 12.479ZM171.364 11.6434L169.6 10.2509C170.808 9.22967 171.271 7.83712 171.271 6.90872V6.35169H171.086C170.9 6.81588 170.529 7.28008 169.786 7.28008C169.043 7.28008 168.58 6.90872 168.115 6.35169L163.938 8.67264V12.0148L165.516 13.2217C163.938 14.6143 163.659 15.5427 163.659 16.2854C163.659 17.2138 164.123 17.8636 164.866 18.1422L164.958 17.9565C164.773 17.7708 164.587 17.678 164.587 17.2138C164.587 16.9352 164.958 16.4711 165.701 16.4711C166.63 16.4711 167.186 17.1209 167.465 17.3994L171.457 14.9856V11.6434H171.364ZM170.343 8.85834C169.693 9.97241 168.301 11.0864 167.465 11.6434L166.444 10.8079V7.55857C166.815 8.48693 167.837 9.22967 168.858 9.22967C169.507 9.22967 169.879 9.13682 170.343 8.85834ZM168.765 16.2854C168.301 15.2641 167.186 14.5215 166.073 14.5215C165.794 14.5215 165.051 14.5215 164.309 14.9856C164.773 14.2429 165.98 12.9432 167.558 12.0148L168.672 12.9432L168.765 16.2854Z" fill="black"/>
</g>
</g>
</g>
<defs>
<clipPath id="clip0_3_2168">
<rect width="171" height="23.06" fill="white" transform="translate(0.5 0.410034)"/>
</clipPath>
<clipPath id="clip1_3_2168">
<rect width="171" height="23.06" fill="white" transform="translate(0.5 0.410034)"/>
</clipPath>
<clipPath id="clip2_3_2168">
<rect width="170.915" height="23.06" fill="white" transform="translate(0.541992 0.410034)"/>
</clipPath>
</defs>
</svg>
