<svg width="67" height="19" viewBox="0 0 67 19" fill="none" xmlns="http://www.w3.org/2000/svg">
<g clip-path="url(#clip0_1_101)">
<g clip-path="url(#clip1_1_101)">
<g clip-path="url(#clip2_1_101)">
<path d="M13.0998 8.10991V16.6399C13.0998 16.6999 13.0898 16.8099 13.0098 16.8399C13.0098 16.8399 11.1598 18.1599 8.08979 18.1599C4.39979 18.1599 0.00978511 16.9999 0.00978511 9.35991C-0.000214886 1.71991 3.83979 0.159912 7.58979 0.159912C10.8298 0.159912 12.1398 0.889912 12.3398 1.01991C12.3998 1.09991 12.4398 1.15991 12.4398 1.22991L11.8098 3.87991C11.8098 4.00991 11.6798 4.17991 11.5098 4.12991C10.9798 3.96991 10.1698 3.62991 8.28979 3.62991C6.09979 3.62991 3.74979 4.25991 3.74979 9.17991C3.74979 14.0999 5.97979 14.6799 7.58979 14.6799C8.95979 14.6799 9.44979 14.5199 9.44979 14.5199V11.0999H7.25979C7.09979 11.0999 6.97978 10.9799 6.97978 10.8499V8.10991C6.97978 7.97991 7.09979 7.85991 7.25979 7.85991H12.8198C12.9798 7.85991 13.0998 7.97991 13.0998 8.10991ZM66.3898 11.5799C66.3898 16.6799 64.7398 18.1299 61.8598 18.1299C60.5031 18.1804 59.173 17.7442 58.1098 16.8999C58.1098 16.8999 58.0498 17.5799 57.9798 17.6699C57.9298 17.7599 57.8598 17.7899 57.7698 17.7899H55.5698C55.4198 17.7899 55.2898 17.6699 55.2898 17.5399L55.3198 1.01991C55.3198 0.889912 55.4298 0.769912 55.5698 0.769912H58.7298C58.8698 0.769912 58.9898 0.889912 58.9898 1.01991V6.61991C58.9898 6.61991 60.2098 5.83991 61.9898 5.83991L61.9698 5.80991C63.7598 5.80991 66.3898 6.47991 66.3898 11.5799ZM41.1498 0.799912C41.2798 0.799912 41.3998 0.919912 41.3998 1.04991V17.5699C41.3998 17.6999 41.2798 17.8199 41.1498 17.8199H37.9798C37.9143 17.8174 37.8521 17.7903 37.8058 17.7439C37.7594 17.6976 37.7323 17.6354 37.7298 17.5699L37.7598 10.5099H32.8398V17.5699C32.8398 17.6999 32.7198 17.8199 32.5898 17.8199H29.4198C29.2998 17.8199 29.1698 17.6999 29.1698 17.5699V1.04991C29.1698 0.919912 29.2898 0.799912 29.4198 0.799912H32.5898C32.7198 0.799912 32.8398 0.919912 32.8398 1.04991V7.12991H37.7598V1.05991C37.7598 0.929912 37.8798 0.809912 38.0098 0.809912H41.1498V0.799912ZM53.4298 6.20991C53.5898 6.20991 53.7098 6.32991 53.7098 6.45991L53.6798 17.5599C53.6798 17.6999 53.5898 17.8199 53.4298 17.8199H51.4298C51.3298 17.8199 51.2298 17.7599 51.1998 17.6799C51.1498 17.5999 51.0798 17.0199 51.0798 17.0199C51.0798 17.0199 49.3998 18.1599 47.3298 18.1599C44.8298 18.1599 42.9898 17.3399 42.9898 14.0699V6.46991C42.9898 6.33991 43.1098 6.21991 43.2498 6.21991H46.4298C46.5598 6.21991 46.6798 6.33991 46.6798 6.47991V13.5399C46.6798 14.6499 47.0098 15.1599 48.1198 15.1599C49.2398 15.1599 50.0498 14.5799 50.0498 14.5799V6.48991C50.0498 6.32991 50.1498 6.20991 50.3098 6.20991H53.4298ZM27.5598 15.0799C27.6215 15.0919 27.6768 15.1259 27.7154 15.1755C27.754 15.2252 27.7734 15.2871 27.7698 15.3499V17.5799C27.7698 17.6799 27.7298 17.7799 27.6398 17.8199C27.4898 17.8899 26.5398 18.1499 25.7498 18.1499C24.0298 18.1499 21.4998 17.7699 21.4998 14.1499V9.25991H19.8498C19.7198 9.25991 19.5998 9.13991 19.5998 8.97991V6.95991C19.5998 6.83991 19.6698 6.72991 19.7998 6.69991C19.8998 6.68991 21.5198 6.28991 21.5198 6.28991V3.05991C21.5198 2.93991 21.5898 2.86991 21.7198 2.86991H24.9298C25.0698 2.86991 25.1398 2.93991 25.1398 3.06991V6.19991H27.5098C27.6198 6.19991 27.7398 6.31991 27.7398 6.44991V8.97991C27.7398 9.13991 27.6398 9.25991 27.5098 9.25991H25.1398V13.9199C25.1398 14.6199 25.5398 15.1499 26.6998 15.1499C27.0698 15.1499 27.4198 15.0799 27.5598 15.0699V15.0799ZM18.1998 6.18991C18.3298 6.18991 18.4498 6.30991 18.4498 6.44991V17.3999C18.4498 17.6699 18.3798 17.7999 18.0798 17.7999H15.2298C14.9798 17.7999 14.7798 17.6999 14.7798 17.3999V6.49991C14.7798 6.32991 14.8998 6.19991 15.0398 6.19991H18.1998V6.18991ZM62.7798 11.8099C62.7798 9.11991 61.6898 8.76991 60.5498 8.88991C59.6498 8.93991 58.9498 9.38991 58.9498 9.38991V14.6199C58.9498 14.6199 59.6698 15.1199 60.7498 15.1599C62.2898 15.1999 62.7798 14.6599 62.7798 11.8099ZM16.6398 1.16991C17.7498 1.16991 18.6598 2.06991 18.6598 3.21991C18.6598 4.36991 17.7598 5.26991 16.6398 5.26991C15.4998 5.26991 14.5898 4.36991 14.5898 3.21991C14.5898 2.07991 15.4898 1.16991 16.6398 1.16991ZM27.5498 15.0699L27.5698 15.0799H27.5598L27.5198 15.0699H27.5498Z" fill="black"/>
</g>
</g>
</g>
<defs>
<clipPath id="clip0_1_101">
<rect width="67" height="18" fill="white" transform="translate(0 0.159912)"/>
</clipPath>
<clipPath id="clip1_1_101">
<rect width="67" height="18" fill="white" transform="translate(0 0.159912)"/>
</clipPath>
<clipPath id="clip2_1_101">
<rect width="67" height="18" fill="white" transform="translate(0 0.159912)"/>
</clipPath>
</defs>
</svg>
