<svg width="44" height="44" viewBox="0 0 44 44" fill="none" xmlns="http://www.w3.org/2000/svg">
<g clip-path="url(#clip0_1_135)">
<path fill-rule="evenodd" clip-rule="evenodd" d="M21.6751 39.7361C23.951 39.7361 26.2047 39.2878 28.3074 38.4168C30.4101 37.5459 32.3207 36.2693 33.93 34.6599C35.5394 33.0506 36.816 31.14 37.687 29.0373C38.5579 26.9346 39.0062 24.6809 39.0062 22.4049C39.0062 20.129 38.5579 17.8753 37.687 15.7726C36.816 13.6699 35.5394 11.7593 33.93 10.15C32.3207 8.54064 30.4101 7.26404 28.3074 6.39306C26.2047 5.52209 23.951 5.07381 21.6751 5.07381C17.0786 5.07381 12.6703 6.89976 9.42012 10.15C6.1699 13.4002 4.34395 17.8084 4.34395 22.4049C4.34395 27.0014 6.1699 31.4097 9.42012 34.6599C12.6703 37.9101 17.0786 39.7361 21.6751 39.7361ZM21.6751 43.081C27.1587 43.081 32.4178 40.9026 36.2953 37.0251C40.1728 33.1476 42.3511 27.8886 42.3511 22.4049C42.3511 16.9213 40.1728 11.6623 36.2953 7.78476C32.4178 3.90725 27.1587 1.72888 21.6751 1.72888C16.1915 1.72888 10.9324 3.90725 7.0549 7.78476C3.17739 11.6623 0.999023 16.9213 0.999023 22.4049C0.999023 27.8886 3.17739 33.1476 7.0549 37.0251C10.9324 40.9026 16.1915 43.081 21.6751 43.081Z" fill="black"/>
<path fill-rule="evenodd" clip-rule="evenodd" d="M11.6956 28.2494L7.80846 23.572L6.8252 22.3958L7.80846 21.2196L11.6956 16.5514H16.4832L11.6129 22.3958L16.4832 28.2494H11.7047H11.6956ZM17.5124 28.2494L22.1898 16.5514H26.1412L21.4638 28.2494H17.5124ZM31.6457 28.2494H26.858L31.7284 22.3958L26.858 16.5514H31.6365L35.5328 21.2196L36.516 22.3958L35.5328 23.572L31.6457 28.2494Z" fill="black"/>
</g>
<defs>
<clipPath id="clip0_1_135">
<rect width="43.19" height="43.19" fill="white" transform="translate(0.0800781 0.809999)"/>
</clipPath>
</defs>
</svg>
