<svg width="100" height="27" viewBox="0 0 100 27" fill="none" xmlns="http://www.w3.org/2000/svg">
<g clip-path="url(#clip0_3_2583)">
<path d="M0.519531 0.200195V20.3602L3.11953 20.3702V10.7702H9.36953V8.2302H3.10953V2.7302H11.2595V0.200195H0.519531ZM15.9195 4.3002C16.3704 4.3002 16.8028 4.12109 17.1216 3.80228C17.4404 3.48347 17.6195 3.05106 17.6195 2.6002C17.6195 2.14933 17.4404 1.71693 17.1216 1.39811C16.8028 1.0793 16.3704 0.900195 15.9195 0.900195C15.4687 0.900195 15.0363 1.0793 14.7174 1.39811C14.3986 1.71693 14.2195 2.14933 14.2195 2.6002C14.2195 3.05106 14.3986 3.48347 14.7174 3.80228C15.0363 4.12109 15.4687 4.3002 15.9195 4.3002ZM14.6095 6.8302V20.3702H17.2095V6.8302H14.6095Z" fill="black"/>
<path fill-rule="evenodd" clip-rule="evenodd" d="M26.8205 6.44043C23.3805 6.44043 20.9805 9.35043 20.9805 12.8104C20.9805 16.2704 23.3805 19.1804 26.8205 19.1804C28.4005 19.1804 29.7005 18.5804 30.6505 17.5804V19.3804C30.6571 19.9183 30.557 20.4521 30.3561 20.951C30.1551 21.4499 29.8573 21.9041 29.4797 22.2872C29.1022 22.6703 28.6525 22.9748 28.1565 23.183C27.6606 23.3913 27.1283 23.4991 26.5905 23.5004C25.7605 23.5004 24.9405 23.1804 24.2905 22.7204L22.9905 24.9704C23.9957 25.6202 25.1576 25.9866 26.3538 26.031C27.5499 26.0754 28.7358 25.7962 29.7864 25.2227C30.8371 24.6493 31.7135 23.8029 32.3231 22.7729C32.9328 21.7429 33.2532 20.5674 33.2505 19.3704V6.84043H30.6505V8.05043C29.7005 7.05043 28.4005 6.45043 26.8205 6.45043V6.44043ZM23.5705 12.8104C23.5705 10.6604 25.2105 8.97043 27.1105 8.97043C29.0105 8.97043 30.6405 10.6704 30.6405 12.8104C30.6405 14.9604 29.0005 16.6404 27.1105 16.6404C25.2105 16.6404 23.5705 14.9604 23.5705 12.8104Z" fill="black"/>
<path d="M42.59 8.97C41.8464 8.98314 41.1378 9.28846 40.6176 9.81993C40.0973 10.3514 39.8072 11.0663 39.81 11.81V20.37H37.21V6.83H39.81V8.07C40.199 7.55445 40.7042 7.13808 41.2847 6.85482C41.8651 6.57156 42.5042 6.42943 43.15 6.44C44.97 6.44 46.37 7.34 47.17 8.72C47.6163 8.0282 48.2271 7.45783 48.9479 7.05994C49.6686 6.66205 50.4767 6.44905 51.3 6.44C54.25 6.44 56.1 8.82 56.1 11.77V20.37H53.52V11.8C53.5227 11.0563 53.2326 10.3414 52.7123 9.80993C52.1921 9.27846 51.4836 8.97314 50.74 8.96C49.9964 8.97314 49.2878 9.27846 48.7676 9.80993C48.2473 10.3414 47.9572 11.0563 47.96 11.8V20.36H45.36V11.8C45.3628 11.058 45.074 10.3446 44.5559 9.81338C44.0378 9.28219 43.3318 8.97573 42.59 8.96V8.97Z" fill="black"/>
<path fill-rule="evenodd" clip-rule="evenodd" d="M69.9298 8.37059C69.3394 7.75495 68.6295 7.26625 67.8438 6.9344C67.058 6.60254 66.2127 6.43451 65.3598 6.44059C61.4998 6.44059 58.7598 9.70059 58.7598 13.6006C58.7598 17.5006 61.4998 20.7606 65.3598 20.7606C66.2125 20.7649 67.0572 20.5961 67.8427 20.2643C68.6283 19.9326 69.3383 19.4448 69.9298 18.8306V20.3706H72.5198V6.83059H69.9198V8.37059H69.9298ZM61.3498 13.6006C61.3498 11.0206 63.3298 8.97059 65.6398 8.97059C67.9398 8.97059 69.9298 11.0206 69.9298 13.6006C69.9298 16.1806 67.9498 18.2206 65.6398 18.2206C63.3398 18.2206 61.3498 16.1806 61.3498 13.6006Z" fill="black"/>
</g>
<defs>
<clipPath id="clip0_3_2583">
<rect width="73" height="26" fill="white" transform="translate(0 0.200195)"/>
</clipPath>
</defs>
</svg>
